<svg height='72px' width='72px'  fill="#04c2c9" xmlns="http://www.w3.org/2000/svg" xmlns:xlink="http://www.w3.org/1999/xlink" version="1.1" x="0px" y="0px" viewBox="0 0 100 100" style="enable-background:new 0 0 100 100;" xml:space="preserve"><g><g><g><g><path d="M49.3,29.2l-7-6.3c-0.4-0.4-0.5-1-0.1-1.4c0.4-0.4,1-0.5,1.4-0.1l5.5,4.9L57.4,16      c0.4-0.4,1-0.5,1.4-0.1c0.4,0.4,0.5,1,0.1,1.4L49.3,29.2z"></path></g></g><g><path d="M50,43.7l-0.3-0.1c-9.2-2.7-15.3-10-17.8-21c-1.8-8.2-1-15.5-1-15.9l0.1-1l1,0.1     C42.6,7,49.2,1.1,49.3,1L50,0.4L50.7,1c0.1,0.1,6.7,6,17.2,4.8l1-0.1l0.1,1c0,0.3,0.9,7.6-1,15.9c-2.5,11.1-8.6,18.3-17.8,21     L50,43.7z M32.9,7.9C32.6,13,32.1,36,50,41.5C67.9,36,67.4,13,67.1,7.9C58.1,8.6,52,4.6,50,3.1C48,4.6,41.9,8.6,32.9,7.9z"></path></g></g><g><path d="M77.5,90.2c-0.6,0-1-0.5-1-1v-7.7c0-0.6,0.5-1,1-1c0.6,0,1,0.5,1,1v7.7C78.5,89.8,78,90.2,77.5,90.2z"></path></g><g><g><path d="M96.5,82.5h-38c-1.9,0-3.5-1.6-3.5-3.5v-8.8c0-1.9,1.6-3.5,3.5-3.5h38c1.9,0,3.5,1.6,3.5,3.5V79     C100,81,98.4,82.5,96.5,82.5z M58.5,68.7c-0.8,0-1.5,0.7-1.5,1.5V79c0,0.8,0.7,1.5,1.5,1.5h38c0.8,0,1.5-0.7,1.5-1.5v-8.8     c0-0.8-0.7-1.5-1.5-1.5H58.5z"></path></g><g><path d="M89.4,75.6h-12c-0.6,0-1-0.5-1-1c0-0.6,0.5-1,1-1h12c0.6,0,1,0.5,1,1C90.5,75.2,90,75.6,89.4,75.6z"></path></g><circle cx="93.9" cy="74.6" r="1.5"></circle></g><g><g><path d="M96.5,60.4h-38c-1.9,0-3.5-1.6-3.5-3.5v-8.8c0-1.9,1.6-3.5,3.5-3.5h38c1.9,0,3.5,1.6,3.5,3.5v8.8     C100,58.8,98.4,60.4,96.5,60.4z M58.5,46.6c-0.8,0-1.5,0.7-1.5,1.5v8.8c0,0.8,0.7,1.5,1.5,1.5h38c0.8,0,1.5-0.7,1.5-1.5v-8.8     c0-0.8-0.7-1.5-1.5-1.5H58.5z"></path></g><g><path d="M89.4,53.5h-12c-0.6,0-1-0.5-1-1c0-0.6,0.5-1,1-1h12c0.6,0,1,0.5,1,1C90.5,53.1,90,53.5,89.4,53.5z"></path></g><circle cx="93.9" cy="52.5" r="1.5"></circle></g><g><g><path d="M96.5,38.3H64.7c-0.6,0-1-0.5-1-1c0-0.6,0.5-1,1-1h31.8c0.8,0,1.5-0.7,1.5-1.5V26c0-0.8-0.7-1.5-1.5-1.5     H71c-0.6,0-1-0.5-1-1c0-0.6,0.5-1,1-1h25.5c1.9,0,3.5,1.6,3.5,3.5v8.8C100,36.7,98.4,38.3,96.5,38.3z"></path></g><g><path d="M89.4,31.4h-12c-0.6,0-1-0.5-1-1s0.5-1,1-1h12c0.6,0,1,0.5,1,1S90,31.4,89.4,31.4z"></path></g><circle cx="93.9" cy="30.4" r="1.5"></circle></g><g><path d="M22.5,90.2c-0.6,0-1-0.5-1-1v-7.7c0-0.6,0.5-1,1-1c0.6,0,1,0.5,1,1v7.7C23.6,89.8,23.1,90.2,22.5,90.2z"></path></g><g><path d="M28.3,99.6H16.8V88.2h11.4V99.6z M18.8,97.6h7.4v-7.4h-7.4V97.6z"></path></g><g><path d="M83.2,99.6H71.7V88.2h11.4V99.6z M73.8,97.6h7.4v-7.4h-7.4V97.6z"></path></g><g><g><path d="M41.5,82.5h-38C1.6,82.5,0,81,0,79v-8.8c0-1.9,1.6-3.5,3.5-3.5h38c1.9,0,3.5,1.6,3.5,3.5V79     C45.1,81,43.5,82.5,41.5,82.5z M3.5,68.7c-0.8,0-1.5,0.7-1.5,1.5V79c0,0.8,0.7,1.5,1.5,1.5h38c0.8,0,1.5-0.7,1.5-1.5v-8.8     c0-0.8-0.7-1.5-1.5-1.5H3.5z"></path></g><g><path d="M34.5,75.6h-12c-0.6,0-1-0.5-1-1c0-0.6,0.5-1,1-1h12c0.6,0,1,0.5,1,1C35.5,75.2,35.1,75.6,34.5,75.6z"></path></g><circle cx="38.9" cy="74.6" r="1.5"></circle></g><g><g><path d="M41.5,60.4h-38c-1.9,0-3.5-1.6-3.5-3.5v-8.8c0-1.9,1.6-3.5,3.5-3.5h38c1.9,0,3.5,1.6,3.5,3.5v8.8     C45.1,58.8,43.5,60.4,41.5,60.4z M3.5,46.6c-0.8,0-1.5,0.7-1.5,1.5v8.8c0,0.8,0.7,1.5,1.5,1.5h38c0.8,0,1.5-0.7,1.5-1.5v-8.8     c0-0.8-0.7-1.5-1.5-1.5H3.5z"></path></g><g><path d="M34.5,53.5h-12c-0.6,0-1-0.5-1-1c0-0.6,0.5-1,1-1h12c0.6,0,1,0.5,1,1C35.5,53.1,35.1,53.5,34.5,53.5z"></path></g><circle cx="38.9" cy="52.5" r="1.5"></circle></g><g><g><path d="M35.3,38.3H3.5c-1.9,0-3.5-1.6-3.5-3.5V26c0-1.9,1.6-3.5,3.5-3.5h25c0.6,0,1,0.5,1,1c0,0.6-0.5,1-1,1     h-25C2.7,24.5,2,25.2,2,26v8.8c0,0.8,0.7,1.5,1.5,1.5h31.8c0.6,0,1,0.5,1,1C36.3,37.9,35.9,38.3,35.3,38.3z"></path></g><g><path d="M31.3,31.4h-8.8c-0.6,0-1-0.5-1-1s0.5-1,1-1h8.8c0.6,0,1,0.5,1,1S31.9,31.4,31.3,31.4z"></path></g></g><g><path d="M77.5,68.7c-0.6,0-1-0.5-1-1v-8.3c0-0.6,0.5-1,1-1c0.6,0,1,0.5,1,1v8.3C78.5,68.3,78,68.7,77.5,68.7z"></path></g><g><path d="M77.5,46.6c-0.6,0-1-0.5-1-1v-8.3c0-0.6,0.5-1,1-1c0.6,0,1,0.5,1,1v8.3C78.5,46.2,78,46.6,77.5,46.6z"></path></g><g><path d="M22.5,68.7c-0.6,0-1-0.5-1-1v-8.3c0-0.6,0.5-1,1-1c0.6,0,1,0.5,1,1v8.3C23.6,68.3,23.1,68.7,22.5,68.7z"></path></g><g><path d="M22.5,46.6c-0.6,0-1-0.5-1-1v-8.3c0-0.6,0.5-1,1-1c0.6,0,1,0.5,1,1v8.3C23.6,46.2,23.1,46.6,22.5,46.6z"></path></g><path d="M17.8,94.9H1c-0.6,0-1-0.5-1-1c0-0.6,0.5-1,1-1h16.8c0.6,0,1,0.5,1,1C18.8,94.5,18.4,94.9,17.8,94.9z"></path><path d="M72.8,94.9H27.2c-0.6,0-1-0.5-1-1c0-0.6,0.5-1,1-1h45.5c0.6,0,1,0.5,1,1C73.8,94.5,73.3,94.9,72.8,94.9z"></path><path d="M99,94.9H82.2c-0.6,0-1-0.5-1-1c0-0.6,0.5-1,1-1H99c0.6,0,1,0.5,1,1C100,94.5,99.5,94.9,99,94.9z"></path></g></svg>