<svg height='72px' width='72px'  fill="#04c2c9" xmlns="http://www.w3.org/2000/svg" xmlns:xlink="http://www.w3.org/1999/xlink" version="1.1" x="0px" y="0px" viewBox="0 0 100 100" enable-background="new 0 0 100 100" xml:space="preserve"><g><rect x="88.053" y="31.905" width="2.66" height="2.66"></rect><rect x="84.063" y="8.217" width="2.66" height="2.66"></rect><rect x="32.68" y="6.887" width="2.66" height="2.66"></rect><rect x="17.295" y="9.548" transform="matrix(1 0.0062 -0.0062 1 0.0682 -0.116)" width="2.661" height="2.66"></rect><path d="M76.221,69.178l-0.303,0.373c-0.477,0.576-0.395,1.426,0.18,1.9c0.252,0.209,0.557,0.311,0.859,0.311   c0.389,0,0.775-0.168,1.041-0.49l0.33-0.406c0.467-0.582,0.373-1.432-0.209-1.896C77.537,68.502,76.688,68.596,76.221,69.178z"></path><path d="M34.058,14.57c-0.681,0.305-0.984,1.104-0.679,1.785c0.225,0.5,0.717,0.797,1.232,0.797c0.185,0,0.372-0.038,0.552-0.118   c0.288-0.129,0.579-0.255,0.871-0.377c0.688-0.287,1.014-1.077,0.728-1.765c-0.287-0.688-1.076-1.015-1.766-0.727   C34.682,14.295,34.369,14.431,34.058,14.57z"></path><path d="M24.835,23.667c0.331,0,0.663-0.121,0.923-0.366c0.23-0.216,0.464-0.429,0.699-0.638c0.559-0.495,0.608-1.349,0.113-1.906   c-0.494-0.557-1.348-0.607-1.906-0.113c-0.254,0.226-0.506,0.455-0.754,0.688c-0.543,0.51-0.57,1.365-0.061,1.908   C24.116,23.524,24.475,23.667,24.835,23.667z"></path><path d="M29.453,20.004c0.257,0,0.518-0.074,0.748-0.227c0.262-0.175,0.526-0.346,0.794-0.514c0.632-0.396,0.823-1.229,0.428-1.861   c-0.396-0.632-1.229-0.824-1.861-0.427c-0.289,0.181-0.575,0.366-0.859,0.556c-0.62,0.414-0.787,1.252-0.373,1.873   C28.588,19.793,29.016,20.004,29.453,20.004z"></path><path d="M20.065,27.761c0.245,0.186,0.533,0.276,0.818,0.276c0.406,0,0.809-0.183,1.074-0.532c0.19-0.25,0.385-0.497,0.582-0.741   c0.471-0.579,0.381-1.429-0.199-1.898c-0.58-0.471-1.43-0.381-1.898,0.199c-0.215,0.265-0.425,0.532-0.632,0.804   C19.358,26.462,19.473,27.309,20.065,27.761z"></path><path d="M16.179,34.864c-0.7-0.256-1.476,0.106-1.729,0.807c-0.117,0.32-0.229,0.641-0.336,0.964   c-0.234,0.708,0.148,1.472,0.855,1.707c0.142,0.047,0.285,0.069,0.426,0.069c0.566,0,1.093-0.358,1.281-0.925   c0.1-0.3,0.203-0.598,0.311-0.893C17.241,35.893,16.879,35.118,16.179,34.864z"></path><path d="M17.707,32.996c0.483,0,0.951-0.26,1.193-0.717c0.147-0.279,0.3-0.556,0.454-0.83c0.367-0.649,0.138-1.473-0.512-1.839   c-0.65-0.366-1.473-0.136-1.84,0.512c-0.166,0.295-0.328,0.592-0.487,0.892c-0.35,0.659-0.099,1.476,0.56,1.826   C17.276,32.946,17.493,32.996,17.707,32.996z"></path><path d="M40.174,15.195c0.111,0,0.227-0.014,0.34-0.043c0.305-0.08,0.611-0.155,0.918-0.226c0.727-0.167,1.18-0.892,1.014-1.619   c-0.168-0.726-0.891-1.178-1.619-1.012c-0.332,0.077-0.664,0.158-0.992,0.243c-0.721,0.188-1.154,0.925-0.966,1.647   C39.026,14.793,39.574,15.195,40.174,15.195z"></path><path d="M78.229,25.414c-0.461-0.585-1.311-0.685-1.896-0.223s-0.686,1.311-0.223,1.896c0.195,0.247,0.387,0.497,0.574,0.75   c0.266,0.356,0.672,0.544,1.084,0.544c0.281,0,0.564-0.087,0.805-0.267c0.6-0.445,0.723-1.291,0.277-1.889   C78.646,25.952,78.439,25.682,78.229,25.414z"></path><path d="M14.42,40.491c-0.734-0.139-1.437,0.353-1.57,1.086c-0.061,0.334-0.117,0.669-0.169,1.006   c-0.113,0.737,0.393,1.426,1.13,1.54c0.069,0.011,0.139,0.016,0.206,0.016c0.655,0,1.23-0.478,1.333-1.145   c0.048-0.312,0.101-0.623,0.156-0.933C15.641,41.328,15.155,40.625,14.42,40.491z"></path><path d="M45.979,14.191c0.039,0,0.078-0.002,0.119-0.005c0.313-0.027,0.629-0.051,0.945-0.07c0.744-0.045,1.311-0.686,1.266-1.43   c-0.047-0.745-0.693-1.302-1.43-1.266c-0.34,0.021-0.68,0.046-1.016,0.076c-0.744,0.064-1.293,0.719-1.229,1.462   C44.695,13.661,45.285,14.191,45.979,14.191z"></path><path d="M79.775,29.981c-0.654,0.358-0.895,1.178-0.537,1.832c0.152,0.277,0.301,0.557,0.445,0.838   c0.238,0.466,0.711,0.734,1.201,0.734c0.207,0,0.418-0.048,0.615-0.149c0.664-0.34,0.926-1.153,0.586-1.817   c-0.156-0.303-0.314-0.604-0.479-0.902C81.25,29.863,80.428,29.625,79.775,29.981z"></path><path d="M81.537,36.998c0.104,0.297,0.201,0.598,0.297,0.899c0.18,0.577,0.713,0.947,1.287,0.947c0.133,0,0.27-0.021,0.404-0.063   c0.711-0.223,1.107-0.98,0.885-1.692c-0.104-0.328-0.211-0.652-0.322-0.975c-0.244-0.704-1.016-1.079-1.717-0.833   C81.666,35.524,81.293,36.293,81.537,36.998z"></path><path d="M72.934,23.588c0.262,0.251,0.598,0.375,0.934,0.375c0.355,0,0.709-0.139,0.975-0.416c0.516-0.538,0.498-1.393-0.041-1.909   c-0.244-0.235-0.492-0.466-0.744-0.695c-0.553-0.501-1.404-0.46-1.906,0.091c-0.502,0.552-0.461,1.405,0.09,1.907   C72.475,23.154,72.705,23.37,72.934,23.588z"></path><path d="M51.77,14.15c0.316,0.024,0.631,0.052,0.945,0.083c0.047,0.005,0.092,0.007,0.139,0.007c0.684,0,1.27-0.518,1.34-1.213   c0.076-0.742-0.463-1.404-1.205-1.48c-0.336-0.035-0.676-0.064-1.014-0.09c-0.758-0.06-1.393,0.5-1.449,1.244   C50.469,13.445,51.025,14.093,51.77,14.15z"></path><path d="M67.744,19.494c0.266,0.17,0.527,0.344,0.787,0.522c0.234,0.159,0.498,0.235,0.762,0.235c0.43,0,0.854-0.206,1.115-0.588   c0.42-0.615,0.264-1.456-0.354-1.876c-0.279-0.191-0.563-0.379-0.85-0.563c-0.627-0.404-1.461-0.221-1.865,0.405   C66.938,18.255,67.117,19.09,67.744,19.494z"></path><path d="M57.369,15.037c0.309,0.075,0.613,0.154,0.916,0.238c0.121,0.033,0.24,0.048,0.359,0.048c0.592,0,1.137-0.394,1.301-0.993   c0.197-0.719-0.227-1.462-0.945-1.659c-0.328-0.089-0.656-0.174-0.988-0.255c-0.725-0.18-1.455,0.266-1.631,0.99   C56.203,14.128,56.646,14.859,57.369,15.037z"></path><path d="M62.748,16.835c0.287,0.124,0.574,0.252,0.857,0.383c0.184,0.085,0.377,0.125,0.568,0.125c0.51,0,0.996-0.29,1.225-0.782   c0.314-0.676,0.02-1.479-0.656-1.792c-0.309-0.143-0.619-0.282-0.932-0.416c-0.684-0.294-1.479,0.023-1.771,0.709   C61.744,15.748,62.063,16.542,62.748,16.835z"></path><path d="M82.932,42.489c0.051,0.311,0.1,0.623,0.143,0.937c0.094,0.676,0.672,1.166,1.336,1.166c0.061,0,0.123-0.004,0.186-0.013   c0.738-0.102,1.256-0.783,1.152-1.522c-0.045-0.337-0.098-0.673-0.152-1.007c-0.121-0.736-0.813-1.233-1.553-1.112   C83.309,41.059,82.811,41.753,82.932,42.489z"></path><path d="M83.385,58.463c-0.707-0.246-1.475,0.133-1.717,0.838c-0.1,0.293-0.207,0.588-0.32,0.889   c-0.262,0.697,0.092,1.477,0.789,1.738c0.156,0.059,0.316,0.088,0.475,0.088c0.547,0,1.061-0.334,1.264-0.877   c0.123-0.322,0.238-0.643,0.346-0.961C84.465,59.473,84.09,58.705,83.385,58.463z"></path><path d="M81.207,63.943c-0.652-0.359-1.473-0.121-1.834,0.531c-0.15,0.273-0.305,0.545-0.467,0.818   c-0.379,0.643-0.166,1.471,0.477,1.85c0.215,0.127,0.451,0.188,0.686,0.188c0.461,0,0.912-0.236,1.162-0.664   c0.176-0.297,0.346-0.592,0.508-0.889C82.098,65.123,81.861,64.303,81.207,63.943z"></path><path d="M84.592,52.688c-0.738-0.117-1.43,0.385-1.547,1.119c-0.049,0.301-0.102,0.611-0.164,0.93   c-0.139,0.732,0.342,1.439,1.074,1.58c0.084,0.016,0.17,0.023,0.254,0.023c0.635,0,1.201-0.449,1.324-1.096   c0.066-0.346,0.125-0.684,0.178-1.01C85.83,53.498,85.328,52.807,84.592,52.688z"></path><path d="M84.645,46.795c-0.742,0.056-1.301,0.704-1.244,1.447c0.006,0.077,0.027,0.387,0.029,0.89   c0.006,0.743,0.609,1.342,1.35,1.342c0.004,0,0.006,0,0.01,0c0.744-0.005,1.346-0.612,1.342-1.358   c-0.004-0.609-0.031-0.983-0.039-1.076C86.037,47.296,85.383,46.742,84.645,46.795z"></path><path d="M13.621,46.407c-0.754-0.04-1.358,0.584-1.37,1.33l-0.004,0.52c0,0.746,0.605,1.35,1.351,1.35s1.351-0.604,1.351-1.35   l0.003-0.48C14.961,47.031,14.366,46.417,13.621,46.407z"></path><circle cx="66.682" cy="40.069" r="1.714"></circle><circle cx="61.006" cy="30.516" r="1.714"></circle><circle cx="38.432" cy="30.516" r="1.714"></circle><circle cx="35.369" cy="50.659" r="1.714"></circle><path d="M54.881,52.115c-0.074,0-0.15,0.004-0.227,0.016c-0.936,0.121-1.6,0.982-1.477,1.92c0.121,0.926,0.979,1.604,1.922,1.479   c0.453-0.059,0.857-0.291,1.137-0.654s0.4-0.813,0.34-1.268C56.465,52.756,55.736,52.115,54.881,52.115z"></path><path d="M49.668,30.886c-0.094,0-0.182-0.022-0.275-0.028l-3.498,6.645c0.525,0.508,0.91,1.148,1.133,1.863l3.711,0.426   c0.309-0.858,0.865-1.595,1.598-2.114l-2.154-6.844C50.012,30.854,49.844,30.886,49.668,30.886z"></path><circle cx="42.834" cy="40.672" r="1.714"></circle><circle cx="32.305" cy="40.069" r="1.714"></circle><circle cx="54.878" cy="41.275" r="1.714"></circle><circle cx="49.668" cy="26.472" r="1.714"></circle><path d="M53.457,45.434c-1.352-0.463-2.396-1.555-2.799-2.933l-3.662-0.421c-0.123,0.363-0.277,0.711-0.486,1.025l6.547,6.727   c0.045-0.021,0.088-0.043,0.135-0.063L53.457,45.434z"></path><path d="M62.432,38.941c0.26-0.979,0.842-1.82,1.633-2.408l-1.43-1.924c-0.504,0.202-1.053,0.321-1.629,0.321   c-0.264,0-0.518-0.033-0.768-0.078l-2.01,3.583c0.313,0.369,0.572,0.781,0.752,1.238L62.432,38.941z"></path><path d="M69.746,50.327c-0.945,0-1.715,0.767-1.715,1.712s0.77,1.715,1.715,1.715c0.943,0,1.713-0.77,1.713-1.715   S70.689,50.327,69.746,50.327z"></path><path d="M62.578,41.669l-3.451,0.733c-0.393,1.471-1.518,2.629-2.967,3.074l-0.25,4.077c0.459,0.111,0.887,0.301,1.281,0.545   l5.949-7.419C62.912,42.37,62.721,42.034,62.578,41.669z"></path><path d="M42.834,45.086c-0.307,0-0.605-0.032-0.893-0.091l-2.475,4.051c0.197,0.502,0.314,1.043,0.314,1.613   c0,0.074-0.018,0.143-0.021,0.216l11.053,1.288c0.072-0.176,0.152-0.348,0.248-0.512l-6.678-6.86   C43.9,44.973,43.381,45.086,42.834,45.086z"></path><path d="M38.608,41.875l-2.172-0.297c-0.304,0.827-0.842,1.537-1.541,2.048l0.641,2.636c0.763,0.029,1.471,0.253,2.088,0.623   l1.974-3.234C39.137,43.151,38.799,42.546,38.608,41.875z"></path><path d="M77.217,47.248c0-15.472-12.572-27.906-28.045-27.906c-15.472,0-28.013,12.542-28.013,28.014l-5.248,17.038h8.119v9.191   c0,5.076,4.115,9.189,9.191,9.189h3.523c2.539,0,4.595,2.059,4.595,4.596v5.744h26.867V78.025   c-1.072-8.885,2.875-13.215,2.875-13.215C78.016,56.422,77.217,47.248,77.217,47.248z M69.17,56.396l-2.355,2.342   c0.621,0.658,1.055,1.498,1.18,2.451c0.314,2.412-1.393,4.633-3.805,4.947c-0.193,0.025-0.385,0.037-0.574,0.037   c-2.209,0-4.09-1.652-4.375-3.844c-0.145-1.105,0.152-2.162,0.73-3.021l-2.512-1.922c-0.588,0.428-1.268,0.723-2.012,0.82   c-0.193,0.025-0.385,0.037-0.572,0.037h-0.002c-2.049,0-3.797-1.432-4.27-3.389l-11.863-1.383c-0.811,0.971-2.014,1.6-3.372,1.6   c-2.434,0-4.413-1.98-4.413-4.414c0-1.533,0.787-2.884,1.978-3.676l-0.608-2.502c-0.007,0-0.014,0.002-0.02,0.002   c-2.434,0-4.414-1.98-4.414-4.414c0-2.434,1.98-4.414,4.414-4.414c0.15,0,0.292,0.03,0.438,0.044l1.988-2.794   c-0.446-0.69-0.713-1.508-0.713-2.389c0-2.434,1.98-4.414,4.414-4.414c1.337,0,2.521,0.609,3.332,1.551l3.521-0.883   c-0.008-0.101-0.031-0.196-0.031-0.299c0-2.434,1.98-4.414,4.414-4.414c2.098,0,3.85,1.472,4.297,3.435l4.279,1.608   c0.76-0.614,1.711-0.998,2.762-0.998c2.434,0,4.412,1.98,4.412,4.414c0,0.873-0.262,1.683-0.701,2.368l2.066,2.781   c2.387,0.056,4.313,2.005,4.313,4.404c0,1.428-0.693,2.687-1.748,3.494l1.41,4.192c1.945,0.46,3.4,2.201,3.4,4.284   c0,2.436-1.979,4.414-4.412,4.414C69.549,56.453,69.359,56.42,69.17,56.396z"></path><path d="M38.703,39.163c0.305-0.832,0.846-1.544,1.551-2.056l-1.002-2.26c-0.265,0.05-0.539,0.083-0.82,0.083   c-0.567,0-1.105-0.117-1.605-0.313l-1.563,2.198c0.599,0.545,1.039,1.25,1.268,2.05L38.703,39.163z"></path><path d="M66.682,44.482c-0.471,0-0.916-0.094-1.34-0.23l-6.121,7.633l6.248-0.888c0.33-1.35,1.271-2.458,2.521-3.002l-1.186-3.524   C66.764,44.471,66.725,44.482,66.682,44.482z"></path><path d="M59.201,54.613c-0.035,0.201-0.082,0.398-0.146,0.594l3.115,2.383c0.279-0.098,0.572-0.168,0.875-0.207   c0.436-0.057,0.857-0.027,1.266,0.037l2.297-2.283c-0.404-0.41-0.727-0.898-0.947-1.441L59.201,54.613z"></path><path d="M55.936,37.004l1.914-3.412c-0.775-0.796-1.258-1.879-1.258-3.076c0-0.38,0.063-0.743,0.154-1.095l-3.057-1.148   c-0.246,0.546-0.6,1.027-1.035,1.429l2.256,7.164C55.266,36.868,55.605,36.922,55.936,37.004z"></path><path d="M42.834,36.258c0.217,0,0.424,0.034,0.631,0.064l3.404-6.466c-0.203-0.169-0.391-0.355-0.563-0.558l-3.494,0.877   c0.008,0.114,0.033,0.225,0.033,0.341c0,1.174-0.467,2.236-1.217,3.027l1.201,2.715C42.832,36.258,42.832,36.258,42.834,36.258z"></path><path d="M63.621,60.045c-0.076,0-0.15,0.006-0.227,0.016c-0.936,0.121-1.6,0.984-1.477,1.922c0.121,0.924,0.971,1.596,1.922,1.477   c0.936-0.121,1.6-0.984,1.477-1.922C65.205,60.688,64.477,60.045,63.621,60.045z"></path><path d="M74.4,14.678h1.811v1.811c0,0.69,0.561,1.25,1.25,1.25c0.691,0,1.25-0.56,1.25-1.25v-1.811h1.813   c0.689,0,1.25-0.56,1.25-1.25s-0.561-1.25-1.25-1.25h-1.813v-1.811c0-0.69-0.559-1.25-1.25-1.25c-0.689,0-1.25,0.56-1.25,1.25   v1.811H74.4c-0.689,0-1.25,0.56-1.25,1.25S73.711,14.678,74.4,14.678z"></path><path d="M12.347,23.544c0,0.69,0.56,1.25,1.25,1.25s1.25-0.56,1.25-1.25v-1.811h1.811c0.69,0,1.25-0.56,1.25-1.25   s-0.56-1.25-1.25-1.25h-1.811v-1.811c0-0.69-0.56-1.25-1.25-1.25s-1.25,0.56-1.25,1.25v1.811h-1.812c-0.689,0-1.25,0.56-1.25,1.25   s0.561,1.25,1.25,1.25h1.812V23.544z"></path></g></svg>